<?xml version="1.0" encoding="UTF-8"?>
<svg xmlns="http://www.w3.org/2000/svg" id="Layer_1" data-name="Layer 1" viewBox="0 0 24 24" width="512" height="512"><path d="m19,2h-1v-1c0-.552-.448-1-1-1s-1,.448-1,1v1h-8v-1c0-.552-.448-1-1-1s-1,.448-1,1v1h-1C2.243,2,0,4.243,0,7v12c0,2.757,2.243,5,5,5h14c2.757,0,5-2.243,5-5V7c0-2.757-2.243-5-5-5Zm-14,2h14c1.654,0,3,1.346,3,3v1H2v-1c0-1.654,1.346-3,3-3Zm14,18H5c-1.654,0-3-1.346-3-3v-9h20v9c0,1.654-1.346,3-3,3Zm-2.603-6.648c0,.379-.264.698-.566.866l-1.564.87.694,1.893c.134.367.013.778-.299,1.013h0c-.319.24-.759.237-1.075-.007l-1.556-1.203-1.556,1.203c-.316.244-.756.247-1.075.007h0c-.312-.235-.433-.646-.299-1.013l.694-1.893-1.564-.87c-.302-.168-.566-.487-.566-.866,0-.321.279-.676.731-.676h2.247l.596-2.283c.094-.362.419-.614.792-.621.373.007.698.259.792.621l.596,2.283h2.247c.452,0,.731.354.731.676Z"/></svg>
